<svg width="1000" height="456" viewBox="0 0 1000 456" fill="none" xmlns="http://www.w3.org/2000/svg">
<path d="M253.843 69.7305H160.342L55.7959 331H42.8467L147.393 69.7305H53.8916L58.4619 57.9238H258.604L253.843 69.7305ZM188.335 332.523C179.194 332.523 172.021 329.35 166.816 323.002C161.484 316.654 158.818 308.021 158.818 297.104C158.818 295.834 158.818 294.438 158.818 292.914C158.818 291.264 158.945 289.677 159.199 288.153C159.453 286.376 159.707 284.535 159.961 282.631H172.529C172.021 283.9 171.577 285.36 171.196 287.011C170.942 288.28 170.752 289.74 170.625 291.391C170.498 293.041 170.435 294.818 170.435 296.723C170.435 312.592 176.401 320.526 188.335 320.526C202.173 320.526 216.328 312.084 230.801 295.199C245.4 278.188 261.206 254.892 278.218 225.312H239.941L244.512 213.695H285.073C288.247 208.236 291.357 202.523 294.404 196.557C297.578 190.463 301.006 184.306 304.688 178.085C315.098 158.28 325.825 139.491 336.87 121.718C347.915 103.944 358.643 89.3447 369.053 77.9189C376.035 70.4287 383.398 64.9697 391.143 61.542C399.014 58.1143 405.806 56.4004 411.519 56.4004C420.151 56.4004 427.832 57.9238 434.561 60.9707C441.289 63.8906 446.494 66.8105 450.176 69.7305L370.957 266.635C368.418 273.109 366.577 278.822 365.435 283.773C364.419 288.725 363.911 293.168 363.911 297.104C363.911 312.719 371.592 320.526 386.953 320.526C395.332 320.526 404.282 317.226 413.804 310.624C423.452 303.896 432.847 294.564 441.987 282.631L450.557 291.2C440.4 303.642 429.99 313.671 419.326 321.288C408.662 328.778 397.109 332.523 384.668 332.523C376.035 332.523 368.418 329.604 361.816 323.764C355.215 317.924 351.914 308.91 351.914 296.723C351.914 291.01 352.676 285.233 354.199 279.394C355.723 273.554 357.69 267.587 360.103 261.493L374.385 225.312H292.119C280.693 245.37 270.283 262.318 260.889 276.156C251.621 289.867 242.861 300.912 234.609 309.291C226.484 317.543 218.677 323.51 211.187 327.191C203.696 330.746 196.079 332.523 188.335 332.523ZM315.161 183.607C312.241 189.066 309.512 194.271 306.973 199.223C304.434 204.174 301.704 208.998 298.784 213.695H379.146L434.941 74.3008C433.672 73.2852 431.133 72.0791 427.324 70.6826C423.516 69.2861 418.247 68.5879 411.519 68.5879C400.854 68.5879 389.429 74.6816 377.241 86.8691C373.306 90.8047 368.672 96.4541 363.34 103.817C358.008 111.181 352.549 119.369 346.963 128.383C341.377 137.396 335.791 146.728 330.205 156.376C324.619 165.897 319.604 174.975 315.161 183.607ZM525.205 326.239C525.967 320.78 526.792 313.925 527.681 305.673C528.188 298.69 528.76 289.867 529.395 279.203C530.029 268.539 530.347 255.78 530.347 240.927C530.347 228.993 530.093 215.663 529.585 200.937C529.077 186.21 528.252 170.849 527.109 154.853C526.094 138.856 524.697 122.606 522.92 106.103C521.143 89.5986 519.048 73.5391 516.636 57.9238H529.204C534.409 91.6934 537.9 123.241 539.678 152.567C541.455 181.767 542.344 208.617 542.344 233.119C542.344 251.781 541.899 267.777 541.011 281.107C540.122 294.311 539.424 304.975 538.916 313.1C552.119 300.404 565.386 286.249 578.716 270.634C592.173 255.019 604.233 240.038 614.897 225.692C610.454 214.774 607.407 202.714 605.757 189.511C604.106 176.181 603.281 162.089 603.281 147.235C603.281 133.144 604.932 120.004 608.232 107.816C611.66 95.6289 616.167 85.1553 621.753 76.3955C627.339 67.5088 633.623 60.5264 640.605 55.4482C647.715 50.3701 655.015 47.8311 662.505 47.8311C672.153 47.8311 679.707 50.8779 685.166 56.9717C690.625 63.0654 693.354 71.6982 693.354 82.8701C693.354 96.0732 691.323 109.276 687.261 122.479C683.198 135.683 678.057 148.378 671.836 160.565C665.615 172.753 658.633 184.496 650.889 195.795C643.271 207.094 635.845 217.694 628.608 227.597C634.829 240.8 642.446 250.956 651.46 258.065C660.601 265.048 671.963 268.539 685.547 268.539C697.988 268.539 709.478 265.556 720.015 259.589C730.552 253.622 740.771 243.91 750.674 230.453L759.624 239.022C749.722 251.972 738.867 262.128 727.061 269.491C715.254 276.728 700.781 280.346 683.643 280.346C669.551 280.346 657.3 276.664 646.89 269.301C636.479 261.811 627.783 251.464 620.801 238.261C608.359 254.384 594.775 270.57 580.049 286.82C565.322 303.07 550.977 317.797 537.012 331L525.205 326.239ZM615.278 152.377C615.278 177.387 618.008 198.08 623.467 214.457C631.465 203.539 638.955 192.431 645.938 181.132C653.047 169.706 659.204 158.344 664.409 147.045C669.614 135.746 673.677 124.765 676.597 114.101C679.644 103.437 681.167 93.2168 681.167 83.4414C681.167 67.8262 674.946 60.0186 662.505 60.0186C657.046 60.0186 651.46 62.2402 645.747 66.6836C640.034 71 634.956 77.1572 630.513 85.1553C626.069 93.0264 622.388 102.675 619.468 114.101C616.675 125.526 615.278 138.285 615.278 152.377ZM813.135 73.9199C818.086 70.7461 823.545 67.8896 829.512 65.3506C834.717 63.3193 840.747 61.3516 847.603 59.4473C854.585 57.416 862.202 56.4004 870.454 56.4004C879.341 56.4004 887.275 57.8604 894.258 60.7803C901.24 63.5732 907.08 67.5088 911.777 72.5869C916.475 77.665 920.029 83.6953 922.441 90.6777C924.98 97.5332 926.25 104.96 926.25 112.958C926.25 130.858 922.759 147.553 915.776 163.041C908.794 178.529 899.399 192.177 887.593 203.983C875.913 215.663 862.583 224.994 847.603 231.977C832.749 238.959 817.388 243.085 801.519 244.354C804.058 250.575 806.851 256.859 809.897 263.207C813.071 269.428 816.499 275.902 820.181 282.631C828.56 297.23 836.494 307.196 843.984 312.528C851.475 317.86 859.409 320.526 867.788 320.526C874.009 320.526 881.943 318.114 891.592 313.29C901.24 308.466 911.396 301.928 922.061 293.676C932.725 285.297 943.452 275.712 954.243 264.921C965.034 254.13 974.81 242.641 983.569 230.453L992.52 239.022C982.871 251.718 972.461 263.715 961.289 275.014C950.117 286.312 938.882 296.278 927.583 304.911C916.284 313.417 905.239 320.146 894.448 325.097C883.657 330.048 873.882 332.523 865.122 332.523C855.474 332.523 846.143 329.159 837.129 322.431C828.115 315.702 819.736 305.8 811.992 292.724C806.279 283.583 801.582 275.141 797.9 267.396C794.346 259.652 791.108 251.972 788.188 244.354C785.269 244.354 782.856 244.291 780.952 244.164C779.048 244.037 777.461 243.847 776.191 243.593C774.922 243.339 773.716 242.958 772.573 242.45L777.334 231.215C778.096 231.469 779.111 231.723 780.381 231.977C781.65 232.23 783.174 232.421 784.951 232.548C786.855 232.675 789.268 232.738 792.188 232.738C807.295 232.738 822.148 229.755 836.748 223.788C851.475 217.821 864.551 209.506 875.977 198.842C887.402 188.178 896.67 175.546 903.779 160.946C911.016 146.347 914.634 130.351 914.634 112.958C914.634 98.6123 910.508 87.6309 902.256 80.0137C894.131 72.3965 883.53 68.5879 870.454 68.5879C863.726 68.5879 857.505 69.3496 851.792 70.873C846.079 72.3965 841.001 74.1104 836.558 76.0146C831.606 78.0459 826.909 80.3311 822.466 82.8701L723.062 331H710.303L813.135 73.9199Z" fill="white"/>
<line y1="197" x2="1000" y2="197" stroke="white" stroke-opacity="0.6" stroke-width="2"/>
<line x1="274.928" y1="43.3714" x2="150.928" y2="353.371" stroke="white" stroke-opacity="0.6" stroke-width="2"/>
<line x1="810.928" y1="43.3714" x2="686.928" y2="353.371" stroke="white" stroke-opacity="0.6" stroke-width="2"/>
<line x1="542.928" y1="43.3714" x2="418.928" y2="353.371" stroke="white" stroke-opacity="0.6" stroke-width="2"/>
</svg>
